<?xml version="1.0" encoding="utf-8"?>
<!-- Generator: Adobe Illustrator 21.1.0, SVG Export Plug-In . SVG Version: 6.00 Build 0)  -->
<svg version="1.1" id="Layer_1" xmlns="http://www.w3.org/2000/svg" xmlns:xlink="http://www.w3.org/1999/xlink" x="0px" y="0px"
	 viewBox="0 0 130.2 34" style="enable-background:new 0 0 130.2 34;" xml:space="preserve">
<style type="text/css">
	.logo{fill:#fff;}
</style>
<g>
	<path class="logo" d="M8,2.2c1.3,0,2.5,0.1,3.5,0.3c1,0.2,1.9,0.5,2.7,0.9c0.8,0.4,1.4,0.8,1.9,1.4c0.5,0.5,1,1.1,1.3,1.7
		c0.3,0.6,0.6,1.3,0.7,2c0.1,0.7,0.2,1.4,0.2,2.1c0,1-0.1,2-0.3,3.1c-0.2,1-0.5,2-1,3c-0.4,1-0.9,1.9-1.6,2.7
		c-0.6,0.8-1.3,1.6-2.1,2.2c-0.8,0.6-1.7,1.1-2.6,1.5c-1,0.4-2,0.5-3.1,0.5c-0.4,0-0.8,0-1.1-0.1c-0.4-0.1-0.8-0.1-1.1-0.2
		c-0.4-0.1-0.7-0.2-1-0.3s-0.6-0.2-0.9-0.4c-0.1,0-0.2-0.1-0.2-0.1c-0.1,0-0.1-0.1-0.1-0.2C3,22.3,3,22.2,3,22.1c0-0.1,0-0.2,0-0.3
		c0-1.3,0-2.7,0.1-4.1c0.1-1.4,0.2-2.7,0.4-4.1c0.2-1.3,0.5-2.6,0.9-3.8c0.4-1.2,0.9-2.3,1.6-3.2C6.5,6.3,7,6.1,7.4,6.1
		c0.6,0,1.1,0.3,1.5,1C8.5,7.6,8.2,8.1,8,8.7C7.7,9.3,7.5,10,7.4,10.6c-0.2,0.7-0.3,1.3-0.4,2c-0.1,0.7-0.2,1.4-0.3,2
		c-0.1,0.7-0.2,1.4-0.3,1.9c-0.1,0.5-0.1,1-0.2,1.4c0,0.4-0.1,0.7-0.1,1c0,0.3,0,0.6,0,0.9c0,0.3,0,0.5,0,0.7c0,0.2,0.1,0.4,0.1,0.5
		c0.1,0.1,0.2,0.2,0.3,0.3c0.2,0.1,0.4,0.1,0.6,0.1c0.8,0,1.6-0.2,2.3-0.5c0.7-0.3,1.4-0.7,2-1.3c0.6-0.5,1.1-1.1,1.6-1.8
		c0.5-0.7,0.9-1.4,1.2-2.2c0.3-0.8,0.6-1.6,0.8-2.4c0.2-0.8,0.3-1.6,0.3-2.3c0-0.9-0.2-1.7-0.5-2.5c-0.3-0.7-0.7-1.3-1.3-1.9
		c-0.5-0.5-1.2-0.9-2-1.2C10.9,5.1,10.1,5,9.2,5c-0.7,0-1.3,0-2,0.1C6.5,5.2,5.9,5.3,5.3,5.5C4.8,5.6,4.3,5.9,3.9,6.1
		C3.4,6.4,3.1,6.7,2.9,7C2.3,7.9,1.8,8.6,1.5,9.1C1.1,9.6,0.8,9.9,0.5,9.9C0.2,9.9,0,9.5,0,8.7c0-0.8,0.1-1.5,0.3-2.1
		c0.2-0.6,0.5-1.2,0.8-1.7C1.5,4.4,1.9,4,2.4,3.7c0.5-0.3,1-0.6,1.6-0.8C4.7,2.6,5.3,2.5,6,2.4C6.6,2.2,7.3,2.2,8,2.2z"/>
	<path class="logo" d="M30.7,20c-0.2,0.3-0.4,0.6-0.7,0.9c-0.3,0.3-0.7,0.7-1,1c-0.4,0.3-0.8,0.6-1.2,0.8c-0.4,0.2-0.9,0.3-1.3,0.3
		c-0.5,0-1-0.2-1.3-0.5c-0.4-0.3-0.7-0.8-0.9-1.5c-0.2,0.2-0.4,0.4-0.7,0.7c-0.3,0.2-0.6,0.4-0.9,0.6s-0.7,0.3-1,0.5
		c-0.4,0.1-0.7,0.2-1.1,0.2c-0.4,0-0.8-0.1-1.1-0.2c-0.4-0.2-0.7-0.4-1-0.7c-0.3-0.3-0.5-0.6-0.7-1.1c-0.2-0.4-0.3-0.9-0.3-1.4
		c0-0.6,0.1-1.2,0.3-1.8c0.2-0.6,0.4-1.2,0.7-1.8c0.3-0.6,0.6-1.2,1-1.7c0.4-0.5,0.8-1,1.3-1.4c0.5-0.4,1-0.7,1.5-0.9
		c0.5-0.2,1.1-0.4,1.6-0.4c0.2,0,0.3,0,0.4,0.1c0.1,0.1,0.2,0.2,0.3,0.2c0.1,0.1,0.1,0.2,0.2,0.3c0.1,0.1,0.1,0.2,0.2,0.2
		c0.1,0,0.2,0.1,0.3,0.1c0.1,0,0.2,0,0.3,0c0.1,0,0.2,0,0.3,0c0.1,0,0.2,0,0.3,0c0.1,0,0.2,0,0.3,0c0.1,0,0.2,0.1,0.3,0.2
		c0.1,0.1,0.1,0.2,0.2,0.3c0,0.1,0.1,0.3,0.1,0.6c0,0.4,0,0.8-0.1,1.3c-0.1,0.5-0.2,0.9-0.3,1.4c-0.1,0.5-0.2,1-0.3,1.5
		c-0.1,0.5-0.1,1-0.1,1.4c0,0.4,0,0.7,0.1,0.9c0.1,0.2,0.2,0.3,0.4,0.3c0.2,0,0.3,0,0.5-0.1c0.2-0.1,0.4-0.2,0.6-0.3
		c0.2-0.1,0.4-0.3,0.6-0.5c0.2-0.2,0.4-0.3,0.5-0.5c0.4-0.4,0.8-0.9,1.2-1.5L30.7,20z M20.5,19.1c0,0.2,0,0.4,0,0.6
		c0,0.2,0.1,0.4,0.1,0.5c0.1,0.1,0.2,0.3,0.3,0.4c0.1,0.1,0.3,0.1,0.5,0.1c0.3,0,0.6-0.1,0.8-0.4c0.2-0.3,0.4-0.6,0.6-0.9
		c0.2-0.4,0.3-0.7,0.4-1.1c0.1-0.4,0.2-0.7,0.2-1l0.7-3.5c-0.3,0-0.6,0.1-1,0.2c-0.3,0.2-0.6,0.4-0.9,0.7c-0.3,0.3-0.5,0.6-0.8,1
		c-0.2,0.4-0.4,0.7-0.6,1.1c-0.2,0.4-0.3,0.8-0.4,1.2C20.5,18.3,20.5,18.7,20.5,19.1z"/>
	<path class="logo" d="M36.5,20.4c-0.3,0.3-0.6,0.5-1.1,0.8c-0.4,0.3-0.9,0.6-1.4,0.8c-0.5,0.3-1,0.5-1.5,0.6c-0.5,0.2-1,0.3-1.5,0.3
		c-0.4,0-0.8-0.1-1-0.2c-0.3-0.1-0.5-0.3-0.7-0.5c-0.2-0.2-0.3-0.5-0.4-0.8c-0.1-0.3-0.1-0.6-0.1-1c0-0.5,0.1-1.1,0.2-1.7
		c0.1-0.7,0.3-1.4,0.4-2.1c0.2-0.7,0.3-1.4,0.5-2.1c0.2-0.7,0.4-1.4,0.5-2c0.1-0.2,0.2-0.4,0.3-0.5c0.2-0.1,0.4-0.3,0.6-0.4
		c0.2-0.1,0.4-0.2,0.7-0.2c0.2,0,0.4-0.1,0.6-0.1c0.3,0,0.6,0.1,0.7,0.2c0.1,0.1,0.2,0.3,0.2,0.5c0,0.2,0,0.4-0.1,0.8
		c-0.1,0.3-0.2,0.7-0.3,1.1c-0.1,0.4-0.2,0.9-0.4,1.3c-0.1,0.5-0.3,1-0.4,1.4c-0.1,0.5-0.2,1-0.3,1.4c-0.1,0.5-0.1,0.9-0.1,1.2
		c0,0.4,0,0.6,0.1,0.9c0.1,0.2,0.2,0.3,0.5,0.3c0.3,0,0.6-0.1,1-0.3c0.4-0.2,0.7-0.4,1.1-0.7c0.4-0.3,0.7-0.6,1.1-0.9
		c0.3-0.3,0.6-0.6,0.9-0.8V20.4z M31.2,8.1c0-0.2,0-0.4,0.1-0.6c0.1-0.2,0.2-0.4,0.4-0.7c0.2-0.2,0.4-0.4,0.7-0.5
		c0.3-0.1,0.7-0.2,1.1-0.2c0.3,0,0.5,0,0.8,0.1c0.2,0.1,0.5,0.2,0.6,0.3c0.2,0.1,0.3,0.3,0.4,0.5s0.2,0.5,0.2,0.8
		c0,0.3,0,0.5-0.1,0.8c-0.1,0.3-0.2,0.5-0.4,0.7c-0.2,0.2-0.4,0.4-0.7,0.5s-0.6,0.2-1,0.2c-0.7,0-1.2-0.2-1.6-0.5
		C31.3,9.1,31.2,8.7,31.2,8.1z"/>
	<path class="logo" d="M38.3,22.9c-0.4,0-0.8-0.2-1.2-0.6c-0.4-0.4-0.7-0.9-1-1.5c-0.3-0.6-0.5-1.4-0.6-2.2c-0.2-0.8-0.2-1.7-0.2-2.6
		c0-0.7,0.1-1.5,0.2-2.3c0.1-0.8,0.3-1.7,0.5-2.6c0.2-0.9,0.4-1.8,0.7-2.7c0.3-0.9,0.6-1.7,0.9-2.6c0.3-0.8,0.7-1.6,1.1-2.3
		c0.4-0.7,0.8-1.3,1.3-1.9c0.4-0.5,0.9-0.9,1.4-1.2s1-0.5,1.5-0.5c0.3,0,0.6,0.1,0.8,0.2s0.4,0.4,0.5,0.6c0.1,0.3,0.2,0.5,0.3,0.9
		c0.1,0.3,0.1,0.7,0.1,1c0,0.7-0.1,1.5-0.3,2.3s-0.4,1.6-0.7,2.3c-0.3,0.8-0.6,1.6-1,2.4s-0.8,1.6-1.2,2.3c-0.4,0.8-0.8,1.5-1.2,2.3
		s-0.8,1.5-1.2,2.2c0,0.1-0.1,0.2-0.1,0.3c0,0.1-0.1,0.3-0.1,0.4c0,0.1-0.1,0.3-0.1,0.5c0,0.2-0.1,0.3-0.1,0.5v0.2
		c0,0.2,0,0.4,0.1,0.6c0,0.2,0.1,0.4,0.2,0.5c0.1,0.2,0.1,0.3,0.2,0.4C39,20,39.1,20,39.1,20c0.2,0,0.3,0,0.5-0.1
		c0.2-0.1,0.4-0.1,0.6-0.3c0.2-0.1,0.4-0.2,0.7-0.4c0.2-0.1,0.5-0.3,0.7-0.4c0.5-0.3,1-0.7,1.6-1.2l1,2.5c-0.7,0.5-1.4,1-2.1,1.4
		c-0.3,0.2-0.6,0.3-0.9,0.5c-0.3,0.2-0.6,0.3-1,0.4c-0.3,0.1-0.6,0.2-1,0.3C38.9,22.9,38.6,22.9,38.3,22.9z M38.3,13.4
		c0.4-0.6,0.7-1.4,1.1-2.1c0.4-0.8,0.8-1.6,1.1-2.5c0.4-0.8,0.7-1.7,0.9-2.5c0.3-0.8,0.4-1.6,0.5-2.3c0-0.2,0-0.4,0-0.6
		c0-0.2,0-0.2-0.1-0.2c-0.2,0-0.5,0.1-0.7,0.4s-0.5,0.7-0.8,1.2s-0.5,1.1-0.8,1.8S39.2,7.9,39,8.7c-0.2,0.8-0.3,1.5-0.5,2.4
		C38.4,11.8,38.3,12.6,38.3,13.4z"/>
	<path class="logo" d="M48.6,13.8c0.1-0.3,0.2-0.5,0.3-0.7c0.2-0.2,0.4-0.4,0.6-0.5c0.2-0.1,0.4-0.3,0.7-0.3c0.2-0.1,0.4-0.1,0.7-0.1
		c0.2,0,0.5,0.1,0.6,0.2c0.2,0.1,0.3,0.3,0.3,0.5c0,0.1,0,0.2,0,0.3c0,0.2-0.1,0.5-0.2,0.8c-0.1,0.4-0.1,0.8-0.2,1.2
		c-0.1,0.5-0.2,0.9-0.3,1.4c-0.1,0.5-0.2,1-0.3,1.5c-0.2,1.2-0.4,2.4-0.6,3.8c0.2-0.1,0.5-0.3,0.8-0.5c0.3-0.2,0.6-0.5,0.9-0.8
		c0.3-0.3,0.7-0.8,1.1-1.3s0.9-1.1,1.4-1.9L55,20c-0.1,0.2-0.3,0.5-0.6,0.8s-0.5,0.5-0.8,0.8c-0.3,0.3-0.6,0.5-0.9,0.8
		c-0.3,0.2-0.6,0.5-0.9,0.7c-0.7,0.5-1.4,1-2.2,1.5c-0.2,0.9-0.3,1.7-0.5,2.5c-0.2,0.8-0.5,1.6-0.7,2.3c-0.3,0.7-0.6,1.4-1,1.9
		c-0.4,0.6-0.8,1.1-1.2,1.5c-0.5,0.4-1,0.8-1.5,1c-0.6,0.2-1.2,0.4-1.9,0.4c-0.3,0-0.6,0-0.9-0.1c-0.3-0.1-0.6-0.2-0.9-0.3
		c-0.3-0.2-0.5-0.4-0.7-0.7c-0.2-0.3-0.3-0.7-0.3-1.2c0-0.4,0.1-0.8,0.3-1.2c0.2-0.4,0.4-0.9,0.8-1.4c0.3-0.5,0.7-1,1.1-1.6
		c0.4-0.5,0.9-1.1,1.4-1.6c0.5-0.5,1.1-1.1,1.6-1.6c0.6-0.5,1.1-1,1.7-1.5l0.3-1.1c-0.4,0.4-0.9,0.7-1.3,0.9
		c-0.5,0.2-0.9,0.4-1.4,0.4c-0.4,0-0.8-0.1-1.1-0.2c-0.4-0.2-0.7-0.4-1-0.7c-0.3-0.3-0.5-0.6-0.7-1.1c-0.2-0.4-0.3-0.9-0.3-1.4
		c0-0.7,0-1.3,0.1-1.9c0.1-0.6,0.2-1.1,0.3-1.7c0.1-0.5,0.3-1,0.5-1.5c0.2-0.5,0.4-1,0.7-1.5c0.2-0.4,0.4-0.6,0.8-0.8
		c0.3-0.2,0.7-0.3,1-0.3c0.3,0,0.5,0.1,0.7,0.2c0.2,0.1,0.3,0.4,0.3,0.7c0,0.1,0,0.2,0,0.3c0,0.1-0.1,0.2-0.1,0.3
		c-0.1,0.4-0.3,0.8-0.4,1.3c-0.1,0.5-0.3,1-0.4,1.5c-0.1,0.5-0.2,1-0.3,1.5c-0.1,0.5-0.1,0.9-0.1,1.3c0,0.2,0,0.4,0,0.6
		c0,0.2,0.1,0.4,0.1,0.5c0.1,0.1,0.2,0.3,0.3,0.4c0.1,0.1,0.3,0.1,0.5,0.1c0.3,0,0.6-0.1,0.8-0.4c0.2-0.3,0.4-0.6,0.6-0.9
		c0.2-0.4,0.3-0.7,0.4-1.1c0.1-0.4,0.2-0.7,0.2-1L48.6,13.8z M43.1,31.7c0.3,0,0.7-0.1,0.9-0.3c0.3-0.2,0.6-0.5,0.8-0.8
		c0.3-0.3,0.5-0.7,0.7-1.1s0.4-0.8,0.5-1.2c0.2-0.4,0.3-0.8,0.4-1.2c0.1-0.4,0.2-0.8,0.3-1.1c-0.3,0.2-0.6,0.5-0.9,0.7
		c-0.3,0.3-0.6,0.6-0.9,0.9c-0.3,0.3-0.6,0.7-0.9,1c-0.3,0.4-0.5,0.7-0.7,1c-0.2,0.3-0.4,0.6-0.5,0.9c-0.1,0.3-0.2,0.5-0.2,0.7
		C42.6,31.6,42.7,31.7,43.1,31.7z"/>
	<path class="logo" d="M59.3,7c-0.5,0.9-1,1.6-1.4,2.1c-0.4,0.5-0.7,0.7-1,0.7c-0.4,0-0.5-0.4-0.5-1.2c0-0.8,0.1-1.5,0.3-2.1
		c0.2-0.6,0.5-1.2,0.9-1.7c0.4-0.5,0.9-0.9,1.4-1.2c0.6-0.3,1.2-0.6,1.8-0.8c0.7-0.2,1.4-0.4,2.1-0.5c0.7-0.1,1.5-0.2,2.3-0.2
		c0.9,0,1.8,0.1,2.7,0.2c0.9,0.1,1.8,0.3,2.6,0.6s1.6,0.5,2.3,0.9c0.7,0.3,1.4,0.7,1.9,1.1c0.5,0.4,1,0.9,1.3,1.3
		c0.3,0.5,0.5,1,0.5,1.5c0,0.6-0.1,1.2-0.4,1.8c-0.3,0.6-0.7,1.1-1.3,1.6c-0.6,0.5-1.3,0.9-2.2,1.2c-0.9,0.3-2,0.5-3.2,0.5
		c0.8,0,1.5,0.1,2.1,0.4s1.1,0.6,1.5,1c0.4,0.4,0.7,0.9,0.9,1.5c0.2,0.6,0.3,1.1,0.3,1.8c0,0.5-0.1,1-0.2,1.5
		c-0.1,0.5-0.3,1-0.6,1.5c-0.3,0.5-0.6,0.9-1,1.3C72,22.3,71.5,22.6,71,23c-0.5,0.3-1.2,0.6-1.8,0.7c-0.7,0.2-1.4,0.3-2.3,0.3
		c-0.5,0-1.1,0-1.6-0.1c-0.6-0.1-1.2-0.2-1.7-0.3c-0.6-0.1-1.2-0.3-1.7-0.4c-0.6-0.2-1.1-0.3-1.6-0.5c-0.2-0.1-0.4-0.1-0.6-0.3
		c-0.2-0.1-0.3-0.3-0.3-0.6c0-1.3,0-2.7,0.1-4.1c0.1-1.4,0.2-2.7,0.4-4.1c0.2-1.3,0.5-2.6,0.9-3.8c0.4-1.2,0.9-2.3,1.6-3.2
		c0.6-0.4,1.1-0.6,1.5-0.6c0.6,0,1.1,0.3,1.5,1c-0.4,0.5-0.7,1-0.9,1.6c-0.3,0.6-0.5,1.2-0.7,1.9c-0.2,0.7-0.3,1.3-0.4,2
		c-0.1,0.7-0.2,1.4-0.3,2c0,0.4-0.1,0.8-0.1,1.2c0,0.4-0.1,0.9-0.1,1.3c0,0.4,0,0.9-0.1,1.3c0,0.4,0,0.8,0,1.2c0,0.1,0,0.2,0,0.3
		c0,0.1,0,0.2,0,0.3c0,0.1,0,0.2,0.1,0.3c0,0.1,0.1,0.2,0.1,0.2c0.5,0.2,1,0.3,1.6,0.4c0.6,0.1,1.1,0.2,1.7,0.2c0.7,0,1.3-0.1,2-0.2
		c0.6-0.2,1.2-0.4,1.7-0.8c0.5-0.4,0.9-0.8,1.2-1.4c0.3-0.6,0.4-1.2,0.4-2c0-0.5-0.1-0.8-0.3-1.2c-0.2-0.3-0.4-0.6-0.7-0.8
		c-0.3-0.2-0.6-0.4-1-0.5c-0.4-0.1-0.7-0.2-1.1-0.3c-0.4-0.1-0.7-0.2-1.1-0.3c-0.4-0.1-0.7-0.2-1-0.4c-0.3-0.1-0.5-0.3-0.7-0.5
		c-0.2-0.2-0.3-0.5-0.3-0.9c0-0.2,0-0.3,0-0.4s0.1-0.2,0.1-0.3c0.1-0.1,0.2-0.1,0.3-0.2c0.1,0,0.3-0.1,0.6-0.1c0.3,0,0.7,0,0.9,0
		c0.3,0,0.6,0,0.9,0c0.8,0,1.5-0.1,2.1-0.3c0.6-0.2,1.1-0.4,1.6-0.8c0.4-0.3,0.8-0.7,1-1.1c0.2-0.4,0.4-0.9,0.4-1.4
		c0-0.3-0.1-0.6-0.3-0.9c-0.2-0.3-0.4-0.5-0.8-0.7c-0.3-0.2-0.7-0.4-1.2-0.6c-0.4-0.2-0.9-0.3-1.5-0.4c-0.5-0.1-1.1-0.2-1.7-0.2
		C67.6,5,67,5,66.4,5c-0.8,0-1.5,0-2.2,0.1c-0.7,0.1-1.4,0.2-2.1,0.4c-0.6,0.2-1.2,0.4-1.7,0.6C59.9,6.4,59.6,6.7,59.3,7z"/>
	<path class="logo" d="M84.5,12.2c0,0.2,0,0.5-0.1,0.9c0,0.4-0.1,0.8-0.2,1.2c-0.1,0.4-0.2,0.9-0.2,1.4c-0.1,0.5-0.2,0.9-0.2,1.3
		c-0.1,0.4-0.1,0.8-0.2,1.1c0,0.3-0.1,0.5-0.1,0.6c0,0.2,0,0.4,0,0.6c0,0.2,0,0.4,0.1,0.5c0,0.1,0.1,0.2,0.2,0.3
		c0.1,0.1,0.2,0.1,0.4,0.1c0.2,0,0.4,0,0.6-0.1s0.5-0.2,0.8-0.4c0.3-0.1,0.6-0.3,0.9-0.5c0.3-0.2,0.6-0.4,0.8-0.6
		c0.3-0.2,0.5-0.4,0.7-0.6c0.2-0.2,0.4-0.4,0.5-0.6c0,0.3,0,0.5,0,0.7c0,0.2,0,0.4,0,0.6c0,0.2,0,0.4,0,0.6s0,0.4,0,0.7
		c-0.2,0.2-0.4,0.4-0.7,0.6c-0.3,0.2-0.5,0.4-0.9,0.6c-0.3,0.2-0.6,0.4-1,0.6c-0.4,0.2-0.7,0.3-1.1,0.5c-0.4,0.1-0.7,0.3-1.1,0.3
		c-0.4,0.1-0.7,0.1-1,0.1c-0.3,0-0.6-0.1-0.8-0.2c-0.2-0.1-0.4-0.3-0.6-0.5c-0.2-0.2-0.3-0.5-0.4-0.8c-0.1-0.3-0.2-0.6-0.3-1
		c-0.3,0.4-0.6,0.7-0.9,1c-0.3,0.3-0.6,0.6-1,0.8c-0.3,0.2-0.7,0.4-1,0.5c-0.3,0.1-0.7,0.2-1,0.2c-0.3,0-0.5,0-0.7-0.1
		c-0.2-0.1-0.4-0.2-0.6-0.4c-0.2-0.2-0.3-0.5-0.4-0.8c-0.1-0.3-0.2-0.8-0.2-1.3c0-0.6,0.1-1.4,0.2-2.3c0.1-0.9,0.3-2,0.5-3.2
		c0-0.1,0-0.3,0.1-0.5c0-0.2,0.1-0.4,0.2-0.7c0.1-0.2,0.2-0.5,0.3-0.7c0.1-0.2,0.2-0.5,0.4-0.7c0.2-0.2,0.3-0.4,0.5-0.5
		c0.2-0.1,0.4-0.2,0.7-0.2c0.4,0,0.7,0.1,0.9,0.2c0.2,0.1,0.3,0.2,0.3,0.3c-0.1,0.4-0.1,0.9-0.2,1.4c-0.1,0.5-0.2,1-0.3,1.6
		c-0.1,0.5-0.2,1-0.3,1.5c-0.1,0.5-0.2,0.9-0.2,1.3c-0.1,0.4-0.1,0.7-0.1,0.9c0,0.2-0.1,0.4-0.1,0.4c0,0.1,0,0.3,0,0.4
		c0,0.1,0.1,0.2,0.1,0.4c0.1,0.1,0.1,0.2,0.2,0.3c0.1,0.1,0.2,0.1,0.3,0.1c0.2,0,0.4,0,0.5-0.1c0.2-0.1,0.4-0.2,0.5-0.4
		c0.2-0.2,0.3-0.4,0.4-0.6c0.1-0.3,0.2-0.5,0.3-0.9l1.2-6.1c0-0.2,0.2-0.4,0.5-0.5c0.3-0.1,0.6-0.2,1-0.2c0.4,0,0.7,0.1,1,0.2
		S84.5,12,84.5,12.2z"/>
	<path class="logo" d="M100.5,20.6c-0.6,0.4-1.1,0.8-1.7,1.2c-0.2,0.1-0.5,0.3-0.7,0.4c-0.3,0.1-0.5,0.3-0.8,0.4
		c-0.2,0.1-0.5,0.2-0.7,0.3c-0.2,0.1-0.5,0.1-0.7,0.1c-0.1,0-0.3,0-0.5-0.1c-0.2,0-0.5-0.1-0.7-0.3c-0.3-0.1-0.5-0.4-0.8-0.6
		s-0.5-0.6-0.7-1.1c-0.3,0.3-0.6,0.6-0.9,0.8c-0.3,0.3-0.7,0.5-1,0.7c-0.4,0.2-0.7,0.3-1.1,0.5c-0.4,0.1-0.7,0.2-1.1,0.2
		c-0.5,0-1-0.1-1.3-0.3c-0.4-0.2-0.7-0.5-0.9-0.9c-0.3-0.4-0.4-0.8-0.6-1.3c-0.1-0.5-0.2-1-0.2-1.5c0-0.5,0.1-1,0.2-1.5
		c0.1-0.5,0.3-1,0.6-1.5c0.3-0.5,0.6-1,0.9-1.4c0.4-0.4,0.8-0.8,1.2-1.2c0.5-0.3,0.9-0.6,1.5-0.8c0.5-0.2,1.1-0.4,1.7-0.4
		c0-1,0.1-2,0.3-3c0.2-1,0.4-1.9,0.6-2.8c0.3-0.9,0.6-1.7,0.9-2.5c0.4-0.8,0.7-1.4,1.2-2c0.4-0.6,0.9-1,1.3-1.3
		c0.5-0.3,1-0.5,1.5-0.5c0.4,0,0.7,0.1,1,0.3s0.5,0.5,0.6,0.8c0.2,0.3,0.3,0.7,0.4,1.1c0.1,0.4,0.1,0.9,0.1,1.3c0,0.3,0,0.6,0,0.9
		c-0.1,1.1-0.3,2.2-0.6,3.2c-0.3,1-0.6,2-1,2.9c-0.4,0.9-0.8,1.9-1.2,2.8c-0.4,0.9-0.9,1.9-1.3,2.9c0,0.1-0.1,0.2-0.1,0.4
		c0,0.2-0.1,0.3-0.1,0.5c0,0.2-0.1,0.4-0.1,0.6c0,0.2,0,0.4,0,0.6c0,0.2,0,0.4,0,0.7c0,0.2,0.1,0.4,0.1,0.6c0.1,0.2,0.1,0.3,0.3,0.4
		c0.1,0.1,0.2,0.1,0.4,0.1c0.2,0,0.3,0,0.5-0.1c0.2-0.1,0.4-0.1,0.6-0.2c0.2-0.1,0.4-0.2,0.6-0.4c0.2-0.1,0.4-0.3,0.6-0.4
		c0.4-0.3,0.9-0.7,1.4-1.1L100.5,20.6z M92.3,13.9c-0.5,0.3-1,0.6-1.4,1c-0.4,0.4-0.8,0.9-1,1.4c-0.3,0.5-0.5,1-0.6,1.5
		S89,18.7,89,19.1c0,0.2,0,0.3,0.1,0.5c0,0.2,0.1,0.3,0.2,0.4c0.1,0.1,0.2,0.2,0.4,0.3c0.2,0.1,0.4,0.1,0.7,0.1c0.1,0,0.3,0,0.4-0.1
		c0.1-0.1,0.3-0.2,0.4-0.3c0.1-0.1,0.2-0.2,0.4-0.4c0.1-0.1,0.2-0.3,0.3-0.5c0.2-0.4,0.4-0.8,0.6-1.2c0-0.1,0-0.3-0.1-0.5
		c0-0.2,0-0.5,0-0.8c0-0.3,0-0.6,0-0.9c0-0.3,0-0.6,0-0.9c0-0.3,0-0.5,0-0.6C92.3,14,92.3,13.9,92.3,13.9z M97.9,5.2
		c0-0.6,0.1-1,0.1-1.3c0-0.4,0-0.7-0.1-0.9c-0.1-0.2-0.2-0.3-0.3-0.3c-0.3,0-0.5,0.2-0.7,0.5c-0.2,0.3-0.4,0.7-0.5,1.2
		C96.1,5,96,5.5,95.9,6.1s-0.2,1.2-0.3,1.8c-0.1,0.6-0.1,1.1-0.2,1.5c0,0.5-0.1,0.8-0.1,1c0,0.4-0.1,0.8-0.1,1.1c0,0.4,0,0.7,0,1
		c0,0.3,0,0.6,0,0.8c0,0.2,0,0.4,0,0.5v0.1c0.5-1,0.9-2.1,1.3-3.1c0.2-0.4,0.3-0.9,0.5-1.4C97,9,97.2,8.5,97.3,8
		c0.1-0.5,0.3-1,0.4-1.4C97.8,6.1,97.9,5.7,97.9,5.2z"/>
	<path class="logo" d="M104.8,21.7c-0.4,0.4-0.9,0.7-1.3,0.9c-0.5,0.2-0.9,0.4-1.4,0.4c-0.4,0-0.8-0.1-1.1-0.2
		c-0.4-0.2-0.7-0.4-1-0.7c-0.3-0.3-0.5-0.6-0.7-1.1c-0.2-0.4-0.3-0.9-0.3-1.4c0-0.6,0.1-1.2,0.3-1.8c0.2-0.6,0.4-1.2,0.7-1.8
		c0.3-0.6,0.6-1.2,1-1.7c0.4-0.5,0.8-1,1.3-1.4c0.5-0.4,1-0.7,1.5-0.9c0.5-0.2,1.1-0.4,1.6-0.4c0.2,0,0.3,0,0.4,0.1
		c0.1,0.1,0.2,0.2,0.3,0.2c0.1,0.1,0.1,0.2,0.2,0.3c0.1,0.1,0.1,0.2,0.2,0.2c0.1,0,0.2,0.1,0.3,0.1c0.1,0,0.2,0,0.3,0
		c0.1,0,0.2,0,0.3,0c0.1,0,0.2,0,0.3,0c0.1,0,0.2,0,0.3,0c0.1,0,0.2,0.1,0.3,0.2c0.1,0.1,0.1,0.2,0.2,0.3c0,0.1,0.1,0.3,0.1,0.6
		c0,0.2,0,0.5,0,0.8c0,0.4-0.1,0.7-0.1,1.2c-0.1,0.4-0.1,0.9-0.2,1.4c-0.1,0.5-0.1,1-0.2,1.4c-0.2,1.1-0.4,2.3-0.6,3.5
		c0.2-0.1,0.5-0.3,0.8-0.5c0.3-0.2,0.6-0.5,0.9-0.8c0.3-0.3,0.7-0.8,1.1-1.3c0.4-0.5,0.9-1.1,1.4-1.9l0.6,2.7
		c-0.1,0.2-0.3,0.5-0.6,0.8s-0.5,0.5-0.8,0.8c-0.3,0.3-0.6,0.5-0.9,0.8c-0.3,0.2-0.6,0.5-0.9,0.7c-0.7,0.5-1.4,1-2.2,1.5
		c-0.2,0.9-0.3,1.7-0.5,2.5c-0.2,0.8-0.5,1.6-0.7,2.3c-0.3,0.7-0.6,1.4-1,1.9c-0.4,0.6-0.8,1.1-1.2,1.5c-0.5,0.4-1,0.8-1.5,1
		c-0.6,0.2-1.2,0.4-1.9,0.4c-0.3,0-0.6,0-0.9-0.1c-0.3-0.1-0.6-0.2-0.9-0.3c-0.3-0.2-0.5-0.4-0.7-0.7c-0.2-0.3-0.3-0.7-0.3-1.2
		c0-0.4,0.1-0.8,0.3-1.2c0.2-0.4,0.4-0.9,0.8-1.4c0.3-0.5,0.7-1,1.1-1.6c0.4-0.5,0.9-1.1,1.4-1.6c0.5-0.5,1.1-1.1,1.6-1.6
		c0.6-0.5,1.1-1,1.7-1.5L104.8,21.7z M100.4,31.7c0.3,0,0.7-0.1,0.9-0.3c0.3-0.2,0.6-0.5,0.8-0.8c0.3-0.3,0.5-0.7,0.7-1.1
		s0.4-0.8,0.5-1.2c0.2-0.4,0.3-0.8,0.4-1.2c0.1-0.4,0.2-0.8,0.3-1.1c-0.3,0.2-0.6,0.5-0.9,0.7c-0.3,0.3-0.6,0.6-0.9,0.9
		c-0.3,0.3-0.6,0.7-0.9,1c-0.3,0.4-0.5,0.7-0.7,1c-0.2,0.3-0.4,0.6-0.5,0.9c-0.1,0.3-0.2,0.5-0.2,0.7C99.9,31.6,100,31.7,100.4,31.7
		z M102.1,19.1c0,0.2,0,0.4,0,0.6c0,0.2,0.1,0.4,0.1,0.5c0.1,0.1,0.2,0.3,0.3,0.4c0.1,0.1,0.3,0.1,0.5,0.1c0.3,0,0.6-0.1,0.8-0.4
		c0.2-0.3,0.4-0.6,0.6-0.9c0.2-0.4,0.3-0.7,0.4-1.1c0.1-0.4,0.2-0.7,0.2-1l0.7-3.5c-0.3,0-0.6,0.1-1,0.2c-0.3,0.2-0.6,0.4-0.9,0.7
		c-0.3,0.3-0.5,0.6-0.8,1c-0.2,0.4-0.4,0.7-0.6,1.1c-0.2,0.4-0.3,0.8-0.4,1.2C102.2,18.3,102.1,18.7,102.1,19.1z"/>
	<path class="logo" d="M114.9,22.9c-0.7,0-1.4-0.1-2-0.4c-0.6-0.3-1-0.6-1.4-1.1c-0.4-0.5-0.7-1-0.8-1.6c-0.2-0.6-0.3-1.2-0.3-1.9
		c0-0.4,0-0.9,0.1-1.4c0.1-0.5,0.2-1,0.4-1.5s0.4-0.9,0.7-1.4c0.3-0.4,0.6-0.8,0.9-1.1c0.4-0.3,0.8-0.6,1.2-0.8
		c0.4-0.2,0.9-0.3,1.5-0.3c0.4,0,0.9,0.1,1.2,0.2s0.7,0.3,1,0.6c0.3,0.3,0.5,0.6,0.7,0.9c0.2,0.4,0.2,0.8,0.2,1.2
		c0,0.5-0.1,1-0.4,1.5c-0.2,0.5-0.6,1-1,1.4c-0.4,0.4-0.9,0.8-1.5,1.2c-0.6,0.3-1.2,0.6-1.9,0.8c0.1,0.2,0.2,0.4,0.4,0.5
		c0.1,0.1,0.2,0.3,0.4,0.3c0.1,0.1,0.2,0.1,0.4,0.2c0.1,0,0.3,0,0.4,0c0.5,0,1-0.1,1.5-0.3c0.5-0.2,1-0.4,1.5-0.7
		c0.5-0.3,1-0.6,1.4-0.9c0.4-0.3,0.8-0.7,1.1-1l1.5,1.6c-0.7,0.7-1.4,1.4-2.2,1.9c-0.3,0.2-0.7,0.5-1.1,0.7
		c-0.4,0.2-0.8,0.4-1.2,0.6c-0.4,0.2-0.9,0.3-1.3,0.4C115.9,22.9,115.4,22.9,114.9,22.9z M113.4,17.3c0.3,0,0.6-0.1,0.9-0.2
		c0.3-0.1,0.7-0.3,0.9-0.6c0.3-0.2,0.5-0.5,0.7-0.8c0.2-0.3,0.3-0.5,0.3-0.8c0-0.4-0.1-0.7-0.2-0.9c-0.1-0.2-0.3-0.3-0.5-0.3
		c-0.3,0-0.6,0.1-0.9,0.2c-0.2,0.1-0.4,0.3-0.6,0.5c-0.2,0.2-0.3,0.4-0.4,0.7c-0.1,0.3-0.2,0.5-0.2,0.8c-0.1,0.3-0.1,0.5-0.1,0.8
		C113.4,16.9,113.4,17.1,113.4,17.3z"/>
	<path class="logo" d="M130.2,20.2c-0.8,0.4-1.4,0.8-2,1.2c-0.6,0.3-1.1,0.6-1.6,0.8c-0.5,0.2-0.9,0.4-1.2,0.5
		c-0.4,0.1-0.7,0.2-1,0.2c-0.6,0-1.1-0.2-1.6-0.5c-0.5-0.4-0.8-0.9-1.2-1.6c-0.3-0.7-0.5-1.5-0.7-2.5c-0.2-1-0.2-2.1-0.2-3.3
		c0-0.5,0-1,0.1-1.5c0-0.5,0.1-1.1,0.2-1.6c-0.2,0-0.4-0.1-0.6-0.1c-0.1,0-0.3-0.1-0.4-0.1c-0.1,0-0.3-0.1-0.6-0.1s-0.6-0.1-1-0.1
		c-0.2,0-0.3-0.1-0.4-0.1s-0.2-0.1-0.2-0.2c0-0.1-0.1-0.2-0.1-0.3c0-0.1,0-0.2,0-0.3c0-0.2,0.1-0.3,0.2-0.4c0.2-0.1,0.4-0.1,0.6-0.2
		c0.2,0,0.5-0.1,0.8-0.1c0.3,0,0.6,0,0.8,0c0.3,0,0.5,0,0.7,0c0.2,0,0.4,0,0.4,0c0.2-1.1,0.5-2.1,0.8-3.1c0.3-1,0.7-1.9,1.1-2.7
		c0.4-0.8,0.9-1.4,1.3-1.9c0.5-0.5,1-0.7,1.5-0.7c0.3,0,0.7,0.1,0.9,0.3s0.5,0.4,0.7,0.8c0.2,0.3,0.4,0.7,0.5,1.1
		c0.1,0.4,0.2,0.9,0.2,1.3c0,0.4-0.1,0.8-0.2,1.2c-0.1,0.4-0.3,0.9-0.5,1.3C127.5,8,127.3,8.5,127,9c-0.3,0.5-0.5,0.9-0.8,1.4
		c0.1,0,0.2,0,0.4,0c0.2,0,0.4,0,0.6,0c0.2,0,0.5,0,0.7,0c0.3,0,0.5,0,0.7,0c0.2,0,0.5,0,0.7,0c0.2,0,0.4,0,0.5,0
		c0.2,0,0.3,0.1,0.3,0.2c0.1,0.2,0.1,0.3,0.1,0.6c0,0.3-0.1,0.5-0.2,0.7c-0.2,0.2-0.3,0.3-0.5,0.3h-4.6c-0.2,0.3-0.5,0.6-0.7,0.9
		c-0.2,0.3-0.5,0.6-0.7,0.8c0,0.5-0.1,1-0.1,1.5c0,0.2,0,0.4,0,0.6c0,0.2,0,0.4,0,0.7c0,0.2,0,0.4,0,0.6c0,0.2,0,0.4,0,0.5
		c0,0.4,0,0.8,0.1,1.1c0.1,0.3,0.2,0.5,0.3,0.7c0.2,0.2,0.3,0.3,0.6,0.4c0.2,0.1,0.5,0.1,0.7,0.1c0.2,0,0.4,0,0.6-0.1
		c0.3-0.1,0.5-0.2,0.8-0.3c0.3-0.1,0.6-0.3,0.9-0.5c0.3-0.2,0.7-0.4,1-0.6c0.3-0.2,0.6-0.5,0.9-0.7c0.3-0.3,0.6-0.5,0.8-0.8V20.2z
		 M126.4,5.1c0-0.1,0-0.2,0-0.3c0-0.1,0-0.2-0.1-0.3c0-0.1-0.1-0.2-0.2-0.2c-0.1-0.1-0.2-0.1-0.4-0.1c-0.2,0-0.4,0.2-0.6,0.5
		c-0.2,0.4-0.4,0.8-0.6,1.4c-0.2,0.6-0.4,1.2-0.5,1.9c-0.2,0.7-0.3,1.3-0.5,2c0.1,0,0.2,0,0.4,0c0.1,0,0.2,0,0.4,0
		c0.2-0.4,0.5-0.8,0.7-1.3c0.3-0.5,0.5-0.9,0.7-1.4c0.2-0.5,0.4-0.9,0.5-1.3C126.3,5.7,126.4,5.4,126.4,5.1z"/>
</g>
</svg>
