<?xml version="1.0" encoding="utf-8"?>
<!-- Generator: Adobe Illustrator 21.1.0, SVG Export Plug-In . SVG Version: 6.00 Build 0)  -->
<svg version="1.1" id="Layer_1" xmlns="http://www.w3.org/2000/svg" xmlns:xlink="http://www.w3.org/1999/xlink" x="0px" y="0px"
	 viewBox="0 0 353 718" style="enable-background:new 0 0 353 718;" xml:space="preserve">
<style type="text/css">
	.st0{fill:none;}
	.st1{fill:#FFFFFF;}
</style>
<path class="st0" d="M303.4,19h-28.5c-6.1,0-8.3-0.3-8.7,7.4c-0.4,8-5.9,13-13.3,15.3c-2.5,0.8-5.3,1.2-8,1.2H113.2
	c-2.7,0-5.5-0.5-8-1.3c-7.4-2.3-13-7.3-13.3-15.3c-0.4-7.7-2.6-7.4-8.7-7.4H54.4C36.9,19,22.5,32.4,22.5,49.8v613.3
	c0,17.5,14.4,31.9,31.9,31.9h249c17.5,0,31.1-14.4,31.1-31.9V49.8C334.5,32.4,320.8,19,303.4,19z"/>
<path class="st0" d="M334.3,49.8c0-17.4-13.6-30.8-31.1-30.8h-28.5c-6.1,0-8.3-0.2-8.7,7.5c-0.3,8-5.9,12.8-13.3,15.1
	c-2.5,0.8-5.3,1.4-8,1.4H113.2c-2.7,0-5.5-0.4-8-1.2c-7.4-2.3-12.9-7.5-13.3-15.5c-0.4-7.7-2.6-7.3-8.7-7.3H54.4
	c-17.5,0-31.9,13.4-31.9,30.8v613.3c0,17.5,14.4,31.9,31.9,31.9h249c17.4,0,31.1-14.4,31.1-31.9h-0.2V49.8z"/>
<path class="st1" d="M214.6,27.9c2.4,0,4.4-2,4.4-4.4c0-2.4-2-4.4-4.4-4.4c-2.4,0-4.4,2-4.4,4.4C210.2,25.9,212.2,27.9,214.6,27.9z"
	/>
<path class="st1" d="M159.5,27h39c1.7,0,3-1,3-2.5s-1.3-2.5-3-2.5h-39c-1.7,0-3,1-3,2.5S157.8,27,159.5,27z"/>
<path d="M301.5,0H52.8C24,0,0.5,22.9,0.5,51.6v613.8C0.5,694.2,24,718,52.8,718h248.7c28.8,0,52-23.8,52-52.6V51.6
	C353.5,22.8,330.3,0,301.5,0z M214.6,19.1c2.4,0,4.4,2,4.4,4.4c0,2.4-2,4.4-4.4,4.4c-2.4,0-4.4-2-4.4-4.4
	C210.2,21.1,212.2,19.1,214.6,19.1z M159.5,22h39c1.7,0,3,1,3,2.5s-1.3,2.5-3,2.5h-39c-1.7,0-3-1-3-2.5S157.8,22,159.5,22z
	 M303.4,695h-249c-17.5,0-31.9-14.4-31.9-31.9V49.8C22.5,32.4,36.9,19,54.4,19h28.8c6.1,0,8.3-0.4,8.7,7.3c0.4,8,5.9,13.2,13.3,15.5
	c2.5,0.8,5.3,1.2,8,1.2h131.5c2.7,0,5.5-0.6,8-1.4c7.4-2.3,13-7.1,13.3-15.1c0.4-7.7,2.6-7.5,8.7-7.5h28.5
	c17.5,0,31.1,13.4,31.1,30.8v613.3h0.2C334.5,680.6,320.8,695,303.4,695z"/>
</svg>
