<?xml version="1.0" encoding="utf-8"?>
<!-- Generator: Adobe Illustrator 16.0.0, SVG Export Plug-In . SVG Version: 6.00 Build 0)  -->
<!DOCTYPE svg PUBLIC "-//W3C//DTD SVG 1.1//EN" "http://www.w3.org/Graphics/SVG/1.1/DTD/svg11.dtd">
<svg version="1.1" id="Layer_1" xmlns="http://www.w3.org/2000/svg" xmlns:xlink="http://www.w3.org/1999/xlink" x="0px" y="0px"
	 viewBox="0 0 55.4 49" style="enable-background:new 0 0 55.4 49;" xml:space="preserve">
<style type="text/css">
<![CDATA[
	.st0{fill-rule:evenodd;clip-rule:evenodd;}
]]>
</style>
<g>
	<g>
		<path d="M51.1,9.1l-4.3-1.4V3.9C46.8,1.8,45,0,42.8,0h-0.2c-2.2,0-3.9,1.8-3.9,3.9v1.1L30,2.2c-0.6-0.2-1.3-0.3-2-0.3
			c-0.1,0-0.2,0-0.2,0c-0.8,0-1.5,0.1-2.3,0.3L4.4,9.1c-3.3,1.1-5.2,4.7-4.1,8l0.2,0.7c0.8,2.3,2.8,4,5.2,4.3
			c-0.3,0.8-0.5,1.6-0.5,2.4v18.5c0,3.3,2.6,5.9,5.8,5.9h32.3c3.2,0,5.8-2.6,5.8-5.9V24.6c0-0.8-0.2-1.7-0.5-2.4c0,0,0.1,0,0.1,0
			c2.8,0,5.2-1.8,6.1-4.4l0.2-0.7C56.2,13.8,54.4,10.2,51.1,9.1z M40.7,3.9c0-1.1,0.9-1.9,1.9-1.9h0.2c1.1,0,1.9,0.9,1.9,1.9V7
			l-4-1.3V3.9z M21.2,40.8c0-1.1,0.9-1.9,2-1.9h8c1.1,0,2,0.9,2,2v6h-12L21.2,40.8z M47.2,43.1c0,2.1-1.7,3.9-3.8,3.9h-8.3
			c0.1-0.1,0.1-0.3,0.1-0.3v-5.9c0-2.1-1.9-3.8-4.1-3.8h-7.9c-2.2,0-4,1.7-4,3.8v5.9c0,0,0,0.1,0.1,0.3h-8.3c-2.1,0-3.8-1.7-3.8-3.9
			V24.6c0-1,0.4-1.9,1-2.6c0.1,0,0.2,0,0.3-0.1l19.1-6.3l18,5.9c1,0.7,1.5,1.8,1.5,3.1V43.1z M53.2,16.5L53,17.2
			c-0.6,1.8-2.3,3-4.1,3c-0.5,0-0.9-0.1-1.4-0.2l-19.8-6.5L8,20c-0.4,0.1-0.9,0.2-1.4,0.2c-1.9,0-3.6-1.2-4.2-3l-0.2-0.7
			C1.5,14.2,2.7,11.8,5,11l21.1-6.9c0.4-0.1,0.9-0.2,1.4-0.2l0.3,0l0.2,0c0.5,0,0.9,0.1,1.4,0.2L50.4,11
			C52.7,11.8,54,14.2,53.2,16.5z"/>
	</g>
</g>
</svg>
